<mxfile host="ac.draw.io" modified="2024-01-11T15:45:30.994Z" agent="Mozilla/5.0 (Macintosh; Intel Mac OS X 10_15_7) AppleWebKit/537.36 (KHTML, like Gecko) Chrome/120.0.0.0 Safari/537.36" etag="-BlItqOkH5Ox_o4SfeX6" version="22.1.17" type="embed">
  <diagram id="Sq8wXWEAQMUSdKV1XUnh" name="Page-1">
    <mxGraphModel dx="-3075" dy="-1363" grid="1" gridSize="10" guides="1" tooltips="1" connect="1" arrows="1" fold="1" page="1" pageScale="1" pageWidth="827" pageHeight="1169" math="0" shadow="0">
      <root>
        <mxCell id="0" />
        <mxCell id="1" parent="0" />
        <mxCell id="_D2Yjg_Hj-XDKDloClyo-133" value="" style="rounded=1;whiteSpace=wrap;html=1;" parent="1" vertex="1">
          <mxGeometry x="5830" y="2664" width="1640" height="90" as="geometry" />
        </mxCell>
        <mxCell id="_D2Yjg_Hj-XDKDloClyo-136" value="" style="group" parent="1" connectable="0" vertex="1">
          <mxGeometry x="6380" y="2694" width="440" height="30" as="geometry" />
        </mxCell>
        <mxCell id="_D2Yjg_Hj-XDKDloClyo-134" value="" style="endArrow=classic;html=1;rounded=0;" parent="_D2Yjg_Hj-XDKDloClyo-136" edge="1">
          <mxGeometry width="50" height="50" relative="1" as="geometry">
            <mxPoint x="-200" as="sourcePoint" />
            <mxPoint x="680" y="30" as="targetPoint" />
            <Array as="points">
              <mxPoint />
              <mxPoint x="440" y="30" />
            </Array>
          </mxGeometry>
        </mxCell>
        <mxCell id="_D2Yjg_Hj-XDKDloClyo-135" value="" style="endArrow=classic;html=1;rounded=0;" parent="_D2Yjg_Hj-XDKDloClyo-136" edge="1">
          <mxGeometry width="50" height="50" relative="1" as="geometry">
            <mxPoint x="-200" y="30" as="sourcePoint" />
            <mxPoint x="680" as="targetPoint" />
            <Array as="points">
              <mxPoint y="30" />
              <mxPoint x="440" />
            </Array>
          </mxGeometry>
        </mxCell>
        <mxCell id="_D2Yjg_Hj-XDKDloClyo-137" value="Fence / Reset Isolation" style="rounded=1;whiteSpace=wrap;html=1;" parent="1" vertex="1">
          <mxGeometry x="5850" y="2738" width="130" height="30" as="geometry" />
        </mxCell>
        <mxCell id="_D2Yjg_Hj-XDKDloClyo-138" value="Fence / Reset Isolation" style="rounded=1;whiteSpace=wrap;html=1;" parent="1" vertex="1">
          <mxGeometry x="6060" y="2738" width="130" height="30" as="geometry" />
        </mxCell>
        <mxCell id="_D2Yjg_Hj-XDKDloClyo-139" value="Fence / Reset Isolation" style="rounded=1;whiteSpace=wrap;html=1;" parent="1" vertex="1">
          <mxGeometry x="6270" y="2738" width="130" height="30" as="geometry" />
        </mxCell>
        <mxCell id="_D2Yjg_Hj-XDKDloClyo-140" value="Fence / Reset Isolation" style="rounded=1;whiteSpace=wrap;html=1;" parent="1" vertex="1">
          <mxGeometry x="6486" y="2738" width="130" height="30" as="geometry" />
        </mxCell>
        <mxCell id="_D2Yjg_Hj-XDKDloClyo-141" value="Fence / Reset Isolation" style="rounded=1;whiteSpace=wrap;html=1;" parent="1" vertex="1">
          <mxGeometry x="6690" y="2738" width="130" height="30" as="geometry" />
        </mxCell>
        <mxCell id="_D2Yjg_Hj-XDKDloClyo-142" value="Fence / Reset Isolation" style="rounded=1;whiteSpace=wrap;html=1;" parent="1" vertex="1">
          <mxGeometry x="6899" y="2738" width="130" height="30" as="geometry" />
        </mxCell>
        <mxCell id="_D2Yjg_Hj-XDKDloClyo-143" value="Fence / Reset Isolation" style="rounded=1;whiteSpace=wrap;html=1;" parent="1" vertex="1">
          <mxGeometry x="7110" y="2738" width="130" height="30" as="geometry" />
        </mxCell>
        <mxCell id="_D2Yjg_Hj-XDKDloClyo-144" value="Fence / Reset Isolation" style="rounded=1;whiteSpace=wrap;html=1;" parent="1" vertex="1">
          <mxGeometry x="7320" y="2738" width="130" height="30" as="geometry" />
        </mxCell>
        <mxCell id="_D2Yjg_Hj-XDKDloClyo-145" value="PCIE" style="rounded=1;whiteSpace=wrap;html=1;" parent="1" vertex="1">
          <mxGeometry x="5830" y="2490" width="90" height="120" as="geometry" />
        </mxCell>
        <mxCell id="_D2Yjg_Hj-XDKDloClyo-146" value="AIC_X_HP" style="rounded=1;whiteSpace=wrap;html=1;" parent="1" vertex="1">
          <mxGeometry x="5960" y="2490" width="120" height="120" as="geometry" />
        </mxCell>
        <mxCell id="_D2Yjg_Hj-XDKDloClyo-149" value="PVE_0_HP" style="rounded=1;whiteSpace=wrap;html=1;" parent="1" vertex="1">
          <mxGeometry x="6120" y="2490" width="120" height="120" as="geometry" />
        </mxCell>
        <mxCell id="_D2Yjg_Hj-XDKDloClyo-150" value="PVE_1_HP" style="rounded=1;whiteSpace=wrap;html=1;" parent="1" vertex="1">
          <mxGeometry x="6280" y="2490" width="120" height="120" as="geometry" />
        </mxCell>
        <mxCell id="_D2Yjg_Hj-XDKDloClyo-151" value="CODEC_HP" style="rounded=1;whiteSpace=wrap;html=1;" parent="1" vertex="1">
          <mxGeometry x="6440" y="2490" width="120" height="120" as="geometry" />
        </mxCell>
        <mxCell id="_D2Yjg_Hj-XDKDloClyo-152" value="SYSDMA_HP" style="rounded=1;whiteSpace=wrap;html=1;" parent="1" vertex="1">
          <mxGeometry x="6600" y="2490" width="120" height="120" as="geometry" />
        </mxCell>
        <mxCell id="_D2Yjg_Hj-XDKDloClyo-153" value="Any Other Master" style="rounded=1;whiteSpace=wrap;html=1;" parent="1" vertex="1">
          <mxGeometry x="6830" y="2490" width="120" height="120" as="geometry" />
        </mxCell>
        <mxCell id="_D2Yjg_Hj-XDKDloClyo-158" value="" style="group" parent="1" connectable="0" vertex="1">
          <mxGeometry x="7000" y="2490" width="470" height="80" as="geometry" />
        </mxCell>
        <mxCell id="_D2Yjg_Hj-XDKDloClyo-154" value="" style="rounded=1;whiteSpace=wrap;html=1;" parent="_D2Yjg_Hj-XDKDloClyo-158" vertex="1">
          <mxGeometry width="470.00000000000006" height="80" as="geometry" />
        </mxCell>
        <mxCell id="_D2Yjg_Hj-XDKDloClyo-155" value="" style="group" parent="_D2Yjg_Hj-XDKDloClyo-158" connectable="0" vertex="1">
          <mxGeometry x="157.6219512195122" y="26.66666666666667" width="126.09756097560974" height="26.66666666666667" as="geometry" />
        </mxCell>
        <mxCell id="_D2Yjg_Hj-XDKDloClyo-156" value="" style="endArrow=classic;html=1;rounded=0;" parent="_D2Yjg_Hj-XDKDloClyo-155" edge="1">
          <mxGeometry width="50" height="50" relative="1" as="geometry">
            <mxPoint x="-57.31707317073171" as="sourcePoint" />
            <mxPoint x="194.87804878048777" y="26.66666666666667" as="targetPoint" />
            <Array as="points">
              <mxPoint />
              <mxPoint x="126.09756097560974" y="26.66666666666667" />
            </Array>
          </mxGeometry>
        </mxCell>
        <mxCell id="_D2Yjg_Hj-XDKDloClyo-157" value="" style="endArrow=classic;html=1;rounded=0;" parent="_D2Yjg_Hj-XDKDloClyo-155" edge="1">
          <mxGeometry width="50" height="50" relative="1" as="geometry">
            <mxPoint x="-57.31707317073171" y="26.66666666666667" as="sourcePoint" />
            <mxPoint x="194.87804878048777" as="targetPoint" />
            <Array as="points">
              <mxPoint y="26.66666666666667" />
              <mxPoint x="126.09756097560974" />
            </Array>
          </mxGeometry>
        </mxCell>
        <mxCell id="_D2Yjg_Hj-XDKDloClyo-159" value="" style="endArrow=classic;html=1;rounded=0;fontColor=#000000;startArrow=classic;startFill=1;exitX=0;exitY=0.5;exitDx=0;exitDy=0;" parent="1" edge="1">
          <mxGeometry width="50" height="50" relative="1" as="geometry">
            <mxPoint x="7220" y="2648" as="sourcePoint" />
            <mxPoint x="7220" y="2604" as="targetPoint" />
          </mxGeometry>
        </mxCell>
        <mxCell id="_D2Yjg_Hj-XDKDloClyo-160" value="" style="endArrow=classic;html=1;rounded=0;fontColor=#000000;startArrow=classic;startFill=1;" parent="1" edge="1">
          <mxGeometry width="50" height="50" relative="1" as="geometry">
            <mxPoint x="6950" y="2526" as="sourcePoint" />
            <mxPoint x="6998.57" y="2526" as="targetPoint" />
          </mxGeometry>
        </mxCell>
        <mxCell id="_D2Yjg_Hj-XDKDloClyo-161" value="" style="endArrow=none;html=1;rounded=0;fontColor=#000000;startArrow=classic;startFill=1;exitX=0;exitY=0.5;exitDx=0;exitDy=0;endFill=0;" parent="1" edge="1">
          <mxGeometry width="50" height="50" relative="1" as="geometry">
            <mxPoint x="5874.29" y="2660" as="sourcePoint" />
            <mxPoint x="5874.29" y="2616" as="targetPoint" />
          </mxGeometry>
        </mxCell>
        <mxCell id="_D2Yjg_Hj-XDKDloClyo-162" value="" style="endArrow=none;html=1;rounded=0;fontColor=#000000;startArrow=classic;startFill=1;exitX=0;exitY=0.5;exitDx=0;exitDy=0;endFill=0;" parent="1" edge="1">
          <mxGeometry width="50" height="50" relative="1" as="geometry">
            <mxPoint x="6019.29" y="2660" as="sourcePoint" />
            <mxPoint x="6019.29" y="2616" as="targetPoint" />
          </mxGeometry>
        </mxCell>
        <mxCell id="_D2Yjg_Hj-XDKDloClyo-163" value="" style="endArrow=none;html=1;rounded=0;fontColor=#000000;startArrow=classic;startFill=1;exitX=0;exitY=0.5;exitDx=0;exitDy=0;endFill=0;" parent="1" edge="1">
          <mxGeometry width="50" height="50" relative="1" as="geometry">
            <mxPoint x="6179.29" y="2660" as="sourcePoint" />
            <mxPoint x="6179.29" y="2616" as="targetPoint" />
          </mxGeometry>
        </mxCell>
        <mxCell id="_D2Yjg_Hj-XDKDloClyo-164" value="" style="endArrow=none;html=1;rounded=0;fontColor=#000000;startArrow=classic;startFill=1;exitX=0;exitY=0.5;exitDx=0;exitDy=0;endFill=0;" parent="1" edge="1">
          <mxGeometry width="50" height="50" relative="1" as="geometry">
            <mxPoint x="6339.29" y="2660" as="sourcePoint" />
            <mxPoint x="6339.29" y="2616" as="targetPoint" />
          </mxGeometry>
        </mxCell>
        <mxCell id="_D2Yjg_Hj-XDKDloClyo-165" value="" style="endArrow=none;html=1;rounded=0;fontColor=#000000;startArrow=classic;startFill=1;exitX=0;exitY=0.5;exitDx=0;exitDy=0;endFill=0;" parent="1" edge="1">
          <mxGeometry width="50" height="50" relative="1" as="geometry">
            <mxPoint x="6499.29" y="2660" as="sourcePoint" />
            <mxPoint x="6499.29" y="2616" as="targetPoint" />
          </mxGeometry>
        </mxCell>
        <mxCell id="_D2Yjg_Hj-XDKDloClyo-166" value="" style="endArrow=none;html=1;rounded=0;fontColor=#000000;startArrow=classic;startFill=1;exitX=0;exitY=0.5;exitDx=0;exitDy=0;endFill=0;" parent="1" edge="1">
          <mxGeometry width="50" height="50" relative="1" as="geometry">
            <mxPoint x="6668.29" y="2660" as="sourcePoint" />
            <mxPoint x="6668.29" y="2616" as="targetPoint" />
          </mxGeometry>
        </mxCell>
        <mxCell id="_D2Yjg_Hj-XDKDloClyo-167" value="" style="endArrow=none;html=1;rounded=0;fontColor=#000000;startArrow=classic;startFill=1;exitX=0;exitY=0.5;exitDx=0;exitDy=0;endFill=0;" parent="1" edge="1">
          <mxGeometry width="50" height="50" relative="1" as="geometry">
            <mxPoint x="6689" y="2660" as="sourcePoint" />
            <mxPoint x="6689" y="2616" as="targetPoint" />
          </mxGeometry>
        </mxCell>
        <mxCell id="_D2Yjg_Hj-XDKDloClyo-168" value="" style="endArrow=none;html=1;rounded=0;fontColor=#000000;startArrow=classic;startFill=1;exitX=0;exitY=0.5;exitDx=0;exitDy=0;endFill=0;" parent="1" edge="1">
          <mxGeometry width="50" height="50" relative="1" as="geometry">
            <mxPoint x="6649" y="2660" as="sourcePoint" />
            <mxPoint x="6649" y="2616" as="targetPoint" />
          </mxGeometry>
        </mxCell>
        <mxCell id="_D2Yjg_Hj-XDKDloClyo-169" value="" style="endArrow=none;html=1;rounded=0;fontColor=#000000;startArrow=classic;startFill=1;exitX=0;exitY=0.5;exitDx=0;exitDy=0;endFill=0;" parent="1" edge="1">
          <mxGeometry width="50" height="50" relative="1" as="geometry">
            <mxPoint x="6629" y="2660" as="sourcePoint" />
            <mxPoint x="6629" y="2616" as="targetPoint" />
          </mxGeometry>
        </mxCell>
        <mxCell id="_D2Yjg_Hj-XDKDloClyo-170" value="LP_NOC" style="text;html=1;align=center;verticalAlign=middle;resizable=0;points=[];autosize=1;strokeColor=none;fillColor=none;" parent="1" vertex="1">
          <mxGeometry x="7000" y="2460" width="70" height="30" as="geometry" />
        </mxCell>
        <mxCell id="_D2Yjg_Hj-XDKDloClyo-171" value="HP_NOC" style="text;html=1;align=center;verticalAlign=middle;resizable=0;points=[];autosize=1;strokeColor=none;fillColor=none;" parent="1" vertex="1">
          <mxGeometry x="7400" y="2634" width="70" height="30" as="geometry" />
        </mxCell>
        <mxCell id="_D2Yjg_Hj-XDKDloClyo-172" value="SOC_MGMT" style="rounded=1;whiteSpace=wrap;html=1;" parent="1" vertex="1">
          <mxGeometry x="5840" y="3060" width="1630" height="90" as="geometry" />
        </mxCell>
        <mxCell id="_D2Yjg_Hj-XDKDloClyo-173" value="CSR" style="rounded=1;whiteSpace=wrap;html=1;" parent="1" vertex="1">
          <mxGeometry x="5850" y="2680" width="60" height="32" as="geometry" />
        </mxCell>
        <mxCell id="_D2Yjg_Hj-XDKDloClyo-174" value="" style="endArrow=classic;html=1;rounded=0;entryX=0.75;entryY=0;entryDx=0;entryDy=0;dashed=1;" parent="1" target="_D2Yjg_Hj-XDKDloClyo-137" edge="1">
          <mxGeometry width="50" height="50" relative="1" as="geometry">
            <mxPoint x="5910" y="2700" as="sourcePoint" />
            <mxPoint x="5960" y="2650" as="targetPoint" />
            <Array as="points">
              <mxPoint x="5948" y="2700" />
            </Array>
          </mxGeometry>
        </mxCell>
        <mxCell id="_D2Yjg_Hj-XDKDloClyo-175" value="" style="endArrow=classic;html=1;rounded=0;entryX=0.75;entryY=0;entryDx=0;entryDy=0;dashed=1;" parent="1" target="_D2Yjg_Hj-XDKDloClyo-138" edge="1">
          <mxGeometry width="50" height="50" relative="1" as="geometry">
            <mxPoint x="5910" y="2700" as="sourcePoint" />
            <mxPoint x="5958" y="2748" as="targetPoint" />
            <Array as="points">
              <mxPoint x="6158" y="2700" />
            </Array>
          </mxGeometry>
        </mxCell>
        <mxCell id="_D2Yjg_Hj-XDKDloClyo-176" value="" style="endArrow=classic;html=1;rounded=0;entryX=0.75;entryY=0;entryDx=0;entryDy=0;dashed=1;" parent="1" target="_D2Yjg_Hj-XDKDloClyo-144" edge="1">
          <mxGeometry width="50" height="50" relative="1" as="geometry">
            <mxPoint x="5910" y="2700" as="sourcePoint" />
            <mxPoint x="6168" y="2748" as="targetPoint" />
            <Array as="points">
              <mxPoint x="7418" y="2700" />
            </Array>
          </mxGeometry>
        </mxCell>
        <mxCell id="_D2Yjg_Hj-XDKDloClyo-177" value="l2_0_rst_n" style="endArrow=classic;html=1;rounded=0;fontColor=#000000;exitX=0.036;exitY=1.01;exitDx=0;exitDy=0;exitPerimeter=0;" parent="1" source="_D2Yjg_Hj-XDKDloClyo-172" edge="1">
          <mxGeometry width="50" height="50" relative="1" as="geometry">
            <mxPoint x="5810" y="2960" as="sourcePoint" />
            <mxPoint x="5899" y="3240" as="targetPoint" />
          </mxGeometry>
        </mxCell>
        <mxCell id="_D2Yjg_Hj-XDKDloClyo-178" value="l2_7_rst_n" style="endArrow=classic;html=1;rounded=0;fontColor=#000000;exitX=0.036;exitY=1.01;exitDx=0;exitDy=0;exitPerimeter=0;" parent="1" edge="1">
          <mxGeometry width="50" height="50" relative="1" as="geometry">
            <mxPoint x="5998.57" y="3150" as="sourcePoint" />
            <mxPoint x="5998.57" y="3239" as="targetPoint" />
          </mxGeometry>
        </mxCell>
        <mxCell id="_D2Yjg_Hj-XDKDloClyo-179" value="..." style="text;html=1;align=center;verticalAlign=middle;resizable=0;points=[];autosize=1;strokeColor=none;fillColor=none;" parent="1" vertex="1">
          <mxGeometry x="5935" y="3180" width="30" height="30" as="geometry" />
        </mxCell>
        <mxCell id="_D2Yjg_Hj-XDKDloClyo-183" value="clk" style="endArrow=classic;html=1;rounded=0;fontColor=#000000;exitX=0.036;exitY=1.01;exitDx=0;exitDy=0;exitPerimeter=0;" parent="1" edge="1">
          <mxGeometry width="50" height="50" relative="1" as="geometry">
            <mxPoint x="6074.5" y="3151" as="sourcePoint" />
            <mxPoint x="6074.5" y="3240" as="targetPoint" />
          </mxGeometry>
        </mxCell>
        <mxCell id="_D2Yjg_Hj-XDKDloClyo-189" value="clk_ctrl_l2_0" style="endArrow=classic;html=1;rounded=0;fontColor=#000000;exitX=0.036;exitY=1.01;exitDx=0;exitDy=0;exitPerimeter=0;" parent="1" edge="1">
          <mxGeometry width="50" height="50" relative="1" as="geometry">
            <mxPoint x="6152" y="3151" as="sourcePoint" />
            <mxPoint x="6152" y="3240" as="targetPoint" />
          </mxGeometry>
        </mxCell>
        <mxCell id="_D2Yjg_Hj-XDKDloClyo-190" value="clk_ctrl_l2_7" style="endArrow=classic;html=1;rounded=0;fontColor=#000000;exitX=0.036;exitY=1.01;exitDx=0;exitDy=0;exitPerimeter=0;" parent="1" edge="1">
          <mxGeometry x="-0.0048" width="50" height="50" relative="1" as="geometry">
            <mxPoint x="6251.57" y="3150" as="sourcePoint" />
            <mxPoint x="6251.57" y="3239" as="targetPoint" />
            <mxPoint as="offset" />
          </mxGeometry>
        </mxCell>
        <mxCell id="_D2Yjg_Hj-XDKDloClyo-191" value="..." style="text;html=1;align=center;verticalAlign=middle;resizable=0;points=[];autosize=1;strokeColor=none;fillColor=none;" parent="1" vertex="1">
          <mxGeometry x="6188" y="3180" width="30" height="30" as="geometry" />
        </mxCell>
        <mxCell id="5d-FkwTWk80sKhFK_zap-10" value="" style="group" parent="1" connectable="0" vertex="1">
          <mxGeometry x="7270" y="2774" width="200" height="284" as="geometry" />
        </mxCell>
        <mxCell id="_D2Yjg_Hj-XDKDloClyo-119" value="&amp;nbsp; &amp;nbsp; &amp;nbsp; &amp;nbsp; &amp;nbsp; &amp;nbsp;L2_7" style="rounded=1;whiteSpace=wrap;html=1;dashed=1;align=center;verticalAlign=middle;arcSize=2;container=0;fillColor=#fff2cc;strokeColor=#d6b656;" parent="5d-FkwTWk80sKhFK_zap-10" vertex="1">
          <mxGeometry x="30" y="61" width="170" height="199" as="geometry" />
        </mxCell>
        <mxCell id="_D2Yjg_Hj-XDKDloClyo-120" value="AXI" style="rounded=0;whiteSpace=wrap;html=1;horizontal=0;fillColor=#f5f5f5;strokeColor=#666666;rotation=90;fontColor=#333333;container=0;" parent="5d-FkwTWk80sKhFK_zap-10" vertex="1">
          <mxGeometry x="61" y="30" width="30" height="67.53" as="geometry" />
        </mxCell>
        <mxCell id="_D2Yjg_Hj-XDKDloClyo-121" value="rst_n" style="endArrow=classic;html=1;rounded=0;fontColor=#000000;entryX=0;entryY=0.5;entryDx=0;entryDy=0;" parent="5d-FkwTWk80sKhFK_zap-10" target="_D2Yjg_Hj-XDKDloClyo-122" edge="1">
          <mxGeometry width="50" height="50" relative="1" as="geometry">
            <mxPoint y="176" as="sourcePoint" />
            <mxPoint x="169.82999999999993" y="528" as="targetPoint" />
          </mxGeometry>
        </mxCell>
        <mxCell id="_D2Yjg_Hj-XDKDloClyo-122" value="rst_sync" style="whiteSpace=wrap;html=1;container=0;" parent="5d-FkwTWk80sKhFK_zap-10" vertex="1">
          <mxGeometry x="41" y="160" width="70" height="32.47" as="geometry" />
        </mxCell>
        <mxCell id="_D2Yjg_Hj-XDKDloClyo-123" value="SMS" style="rounded=0;whiteSpace=wrap;html=1;horizontal=0;fillColor=#f5f5f5;strokeColor=#666666;rotation=90;fontColor=#333333;container=0;" parent="5d-FkwTWk80sKhFK_zap-10" vertex="1">
          <mxGeometry x="61" y="195" width="30" height="60" as="geometry" />
        </mxCell>
        <mxCell id="_D2Yjg_Hj-XDKDloClyo-124" value="ATPG" style="rounded=0;whiteSpace=wrap;html=1;horizontal=0;fillColor=#f5f5f5;strokeColor=#666666;rotation=90;fontColor=#333333;container=0;" parent="5d-FkwTWk80sKhFK_zap-10" vertex="1">
          <mxGeometry x="140" y="195" width="30" height="60" as="geometry" />
        </mxCell>
        <mxCell id="_D2Yjg_Hj-XDKDloClyo-125" value="clk_div" style="whiteSpace=wrap;html=1;container=0;" parent="5d-FkwTWk80sKhFK_zap-10" vertex="1">
          <mxGeometry x="41" y="110" width="70" height="32.47" as="geometry" />
        </mxCell>
        <mxCell id="_D2Yjg_Hj-XDKDloClyo-126" value="" style="endArrow=classic;html=1;rounded=0;fontColor=#000000;startArrow=classic;startFill=1;exitX=0;exitY=0.5;exitDx=0;exitDy=0;" parent="5d-FkwTWk80sKhFK_zap-10" edge="1">
          <mxGeometry width="50" height="50" relative="1" as="geometry">
            <mxPoint x="75.5" y="284" as="sourcePoint" />
            <mxPoint x="75.5" y="240" as="targetPoint" />
          </mxGeometry>
        </mxCell>
        <mxCell id="_D2Yjg_Hj-XDKDloClyo-127" value="APB" style="rounded=0;whiteSpace=wrap;html=1;horizontal=0;fillColor=#f5f5f5;strokeColor=#666666;rotation=90;fontColor=#333333;container=0;" parent="5d-FkwTWk80sKhFK_zap-10" vertex="1">
          <mxGeometry x="140" y="30" width="30" height="67.53" as="geometry" />
        </mxCell>
        <mxCell id="_D2Yjg_Hj-XDKDloClyo-128" value="clk_ctrl" style="endArrow=classic;html=1;rounded=0;fontColor=#000000;entryX=0;entryY=0.5;entryDx=0;entryDy=0;" parent="5d-FkwTWk80sKhFK_zap-10" edge="1">
          <mxGeometry width="50" height="50" relative="1" as="geometry">
            <mxPoint y="125.73000000000002" as="sourcePoint" />
            <mxPoint x="41" y="125.73000000000002" as="targetPoint" />
          </mxGeometry>
        </mxCell>
        <mxCell id="_D2Yjg_Hj-XDKDloClyo-129" value="" style="endArrow=classic;html=1;rounded=0;fontColor=#000000;startArrow=classic;startFill=1;exitX=0;exitY=0.5;exitDx=0;exitDy=0;" parent="5d-FkwTWk80sKhFK_zap-10" edge="1">
          <mxGeometry width="50" height="50" relative="1" as="geometry">
            <mxPoint x="154.5" y="284" as="sourcePoint" />
            <mxPoint x="154.5" y="240" as="targetPoint" />
          </mxGeometry>
        </mxCell>
        <mxCell id="_D2Yjg_Hj-XDKDloClyo-130" value="" style="endArrow=none;html=1;rounded=0;fontColor=#000000;startArrow=classic;startFill=1;exitX=0;exitY=0.5;exitDx=0;exitDy=0;endFill=0;" parent="5d-FkwTWk80sKhFK_zap-10" edge="1">
          <mxGeometry width="50" height="50" relative="1" as="geometry">
            <mxPoint x="75.5" y="44" as="sourcePoint" />
            <mxPoint x="75.5" as="targetPoint" />
          </mxGeometry>
        </mxCell>
        <mxCell id="5d-FkwTWk80sKhFK_zap-9" value="" style="endArrow=none;html=1;rounded=0;fontColor=#000000;startArrow=classic;startFill=1;endFill=0;" parent="5d-FkwTWk80sKhFK_zap-10" edge="1">
          <mxGeometry width="50" height="50" relative="1" as="geometry">
            <mxPoint x="159" y="46" as="sourcePoint" />
            <mxPoint x="159.40999999999985" y="17" as="targetPoint" />
          </mxGeometry>
        </mxCell>
        <mxCell id="5d-FkwTWk80sKhFK_zap-5" value="" style="rounded=1;whiteSpace=wrap;html=1;container=0;" parent="5d-FkwTWk80sKhFK_zap-10" vertex="1">
          <mxGeometry x="140" y="6" width="40" height="10" as="geometry" />
        </mxCell>
        <mxCell id="5d-FkwTWk80sKhFK_zap-7" value="" style="endArrow=classic;html=1;rounded=0;" parent="5d-FkwTWk80sKhFK_zap-10" edge="1">
          <mxGeometry width="50" height="50" relative="1" as="geometry">
            <mxPoint x="148.53658536585317" y="9.333333333333485" as="sourcePoint" />
            <mxPoint x="170" y="12.66666666666697" as="targetPoint" />
            <Array as="points">
              <mxPoint x="153.4146341463411" y="9.333333333333485" />
              <mxPoint x="164.1463414634145" y="12.66666666666697" />
            </Array>
          </mxGeometry>
        </mxCell>
        <mxCell id="5d-FkwTWk80sKhFK_zap-8" value="" style="endArrow=classic;html=1;rounded=0;" parent="5d-FkwTWk80sKhFK_zap-10" edge="1">
          <mxGeometry width="50" height="50" relative="1" as="geometry">
            <mxPoint x="148.53658536585317" y="12.66666666666697" as="sourcePoint" />
            <mxPoint x="170" y="9.333333333333485" as="targetPoint" />
            <Array as="points">
              <mxPoint x="153.4146341463411" y="12.66666666666697" />
              <mxPoint x="164.1463414634145" y="9.333333333333485" />
            </Array>
          </mxGeometry>
        </mxCell>
        <mxCell id="5d-FkwTWk80sKhFK_zap-130" value="lp_noc" style="text;html=1;align=center;verticalAlign=middle;resizable=0;points=[];autosize=1;strokeColor=none;fillColor=none;" parent="5d-FkwTWk80sKhFK_zap-10" vertex="1">
          <mxGeometry x="100" y="16" width="60" height="30" as="geometry" />
        </mxCell>
        <mxCell id="5d-FkwTWk80sKhFK_zap-11" value="" style="group" parent="1" connectable="0" vertex="1">
          <mxGeometry x="7060" y="2773" width="200" height="284" as="geometry" />
        </mxCell>
        <mxCell id="5d-FkwTWk80sKhFK_zap-12" value="&amp;nbsp; &amp;nbsp; &amp;nbsp; &amp;nbsp; &amp;nbsp; &amp;nbsp;L2_6" style="rounded=1;whiteSpace=wrap;html=1;dashed=1;align=center;verticalAlign=middle;arcSize=2;container=0;fillColor=#fff2cc;strokeColor=#d6b656;" parent="5d-FkwTWk80sKhFK_zap-11" vertex="1">
          <mxGeometry x="30" y="61" width="170" height="199" as="geometry" />
        </mxCell>
        <mxCell id="5d-FkwTWk80sKhFK_zap-13" value="AXI" style="rounded=0;whiteSpace=wrap;html=1;horizontal=0;fillColor=#f5f5f5;strokeColor=#666666;rotation=90;fontColor=#333333;container=0;" parent="5d-FkwTWk80sKhFK_zap-11" vertex="1">
          <mxGeometry x="61" y="30" width="30" height="67.53" as="geometry" />
        </mxCell>
        <mxCell id="5d-FkwTWk80sKhFK_zap-14" value="rst_n" style="endArrow=classic;html=1;rounded=0;fontColor=#000000;entryX=0;entryY=0.5;entryDx=0;entryDy=0;" parent="5d-FkwTWk80sKhFK_zap-11" target="5d-FkwTWk80sKhFK_zap-15" edge="1">
          <mxGeometry width="50" height="50" relative="1" as="geometry">
            <mxPoint y="176" as="sourcePoint" />
            <mxPoint x="169.82999999999993" y="528" as="targetPoint" />
          </mxGeometry>
        </mxCell>
        <mxCell id="5d-FkwTWk80sKhFK_zap-15" value="rst_sync" style="whiteSpace=wrap;html=1;container=0;" parent="5d-FkwTWk80sKhFK_zap-11" vertex="1">
          <mxGeometry x="41" y="160" width="70" height="32.47" as="geometry" />
        </mxCell>
        <mxCell id="5d-FkwTWk80sKhFK_zap-16" value="SMS" style="rounded=0;whiteSpace=wrap;html=1;horizontal=0;fillColor=#f5f5f5;strokeColor=#666666;rotation=90;fontColor=#333333;container=0;" parent="5d-FkwTWk80sKhFK_zap-11" vertex="1">
          <mxGeometry x="61" y="195" width="30" height="60" as="geometry" />
        </mxCell>
        <mxCell id="5d-FkwTWk80sKhFK_zap-17" value="ATPG" style="rounded=0;whiteSpace=wrap;html=1;horizontal=0;fillColor=#f5f5f5;strokeColor=#666666;rotation=90;fontColor=#333333;container=0;" parent="5d-FkwTWk80sKhFK_zap-11" vertex="1">
          <mxGeometry x="140" y="195" width="30" height="60" as="geometry" />
        </mxCell>
        <mxCell id="5d-FkwTWk80sKhFK_zap-18" value="clk_div" style="whiteSpace=wrap;html=1;container=0;" parent="5d-FkwTWk80sKhFK_zap-11" vertex="1">
          <mxGeometry x="41" y="110" width="70" height="32.47" as="geometry" />
        </mxCell>
        <mxCell id="5d-FkwTWk80sKhFK_zap-19" value="" style="endArrow=classic;html=1;rounded=0;fontColor=#000000;startArrow=classic;startFill=1;exitX=0;exitY=0.5;exitDx=0;exitDy=0;" parent="5d-FkwTWk80sKhFK_zap-11" edge="1">
          <mxGeometry width="50" height="50" relative="1" as="geometry">
            <mxPoint x="75.5" y="284" as="sourcePoint" />
            <mxPoint x="75.5" y="240" as="targetPoint" />
          </mxGeometry>
        </mxCell>
        <mxCell id="5d-FkwTWk80sKhFK_zap-20" value="APB" style="rounded=0;whiteSpace=wrap;html=1;horizontal=0;fillColor=#f5f5f5;strokeColor=#666666;rotation=90;fontColor=#333333;container=0;" parent="5d-FkwTWk80sKhFK_zap-11" vertex="1">
          <mxGeometry x="140" y="30" width="30" height="67.53" as="geometry" />
        </mxCell>
        <mxCell id="5d-FkwTWk80sKhFK_zap-21" value="clk_ctrl" style="endArrow=classic;html=1;rounded=0;fontColor=#000000;entryX=0;entryY=0.5;entryDx=0;entryDy=0;" parent="5d-FkwTWk80sKhFK_zap-11" edge="1">
          <mxGeometry width="50" height="50" relative="1" as="geometry">
            <mxPoint y="125.73000000000002" as="sourcePoint" />
            <mxPoint x="41" y="125.73000000000002" as="targetPoint" />
          </mxGeometry>
        </mxCell>
        <mxCell id="5d-FkwTWk80sKhFK_zap-22" value="" style="endArrow=classic;html=1;rounded=0;fontColor=#000000;startArrow=classic;startFill=1;exitX=0;exitY=0.5;exitDx=0;exitDy=0;" parent="5d-FkwTWk80sKhFK_zap-11" edge="1">
          <mxGeometry width="50" height="50" relative="1" as="geometry">
            <mxPoint x="154.5" y="284" as="sourcePoint" />
            <mxPoint x="154.5" y="240" as="targetPoint" />
          </mxGeometry>
        </mxCell>
        <mxCell id="5d-FkwTWk80sKhFK_zap-23" value="" style="endArrow=none;html=1;rounded=0;fontColor=#000000;startArrow=classic;startFill=1;exitX=0;exitY=0.5;exitDx=0;exitDy=0;endFill=0;" parent="5d-FkwTWk80sKhFK_zap-11" edge="1">
          <mxGeometry width="50" height="50" relative="1" as="geometry">
            <mxPoint x="75.5" y="44" as="sourcePoint" />
            <mxPoint x="75.5" as="targetPoint" />
          </mxGeometry>
        </mxCell>
        <mxCell id="5d-FkwTWk80sKhFK_zap-24" value="" style="endArrow=none;html=1;rounded=0;fontColor=#000000;startArrow=classic;startFill=1;endFill=0;" parent="5d-FkwTWk80sKhFK_zap-11" edge="1">
          <mxGeometry width="50" height="50" relative="1" as="geometry">
            <mxPoint x="159" y="46" as="sourcePoint" />
            <mxPoint x="159.40999999999985" y="17" as="targetPoint" />
          </mxGeometry>
        </mxCell>
        <mxCell id="5d-FkwTWk80sKhFK_zap-25" value="" style="rounded=1;whiteSpace=wrap;html=1;container=0;" parent="5d-FkwTWk80sKhFK_zap-11" vertex="1">
          <mxGeometry x="140" y="6" width="40" height="10" as="geometry" />
        </mxCell>
        <mxCell id="5d-FkwTWk80sKhFK_zap-26" value="" style="endArrow=classic;html=1;rounded=0;" parent="5d-FkwTWk80sKhFK_zap-11" edge="1">
          <mxGeometry width="50" height="50" relative="1" as="geometry">
            <mxPoint x="148.53658536585317" y="9.333333333333485" as="sourcePoint" />
            <mxPoint x="170" y="12.66666666666697" as="targetPoint" />
            <Array as="points">
              <mxPoint x="153.4146341463411" y="9.333333333333485" />
              <mxPoint x="164.1463414634145" y="12.66666666666697" />
            </Array>
          </mxGeometry>
        </mxCell>
        <mxCell id="5d-FkwTWk80sKhFK_zap-27" value="" style="endArrow=classic;html=1;rounded=0;" parent="5d-FkwTWk80sKhFK_zap-11" edge="1">
          <mxGeometry width="50" height="50" relative="1" as="geometry">
            <mxPoint x="148.53658536585317" y="12.66666666666697" as="sourcePoint" />
            <mxPoint x="170" y="9.333333333333485" as="targetPoint" />
            <Array as="points">
              <mxPoint x="153.4146341463411" y="12.66666666666697" />
              <mxPoint x="164.1463414634145" y="9.333333333333485" />
            </Array>
          </mxGeometry>
        </mxCell>
        <mxCell id="5d-FkwTWk80sKhFK_zap-28" value="" style="group" parent="1" connectable="0" vertex="1">
          <mxGeometry x="6850" y="2781" width="200" height="284" as="geometry" />
        </mxCell>
        <mxCell id="5d-FkwTWk80sKhFK_zap-29" value="&amp;nbsp; &amp;nbsp; &amp;nbsp; &amp;nbsp; &amp;nbsp; &amp;nbsp;L2_5" style="rounded=1;whiteSpace=wrap;html=1;dashed=1;align=center;verticalAlign=middle;arcSize=2;container=0;fillColor=#fff2cc;strokeColor=#d6b656;" parent="5d-FkwTWk80sKhFK_zap-28" vertex="1">
          <mxGeometry x="30" y="61" width="170" height="199" as="geometry" />
        </mxCell>
        <mxCell id="5d-FkwTWk80sKhFK_zap-30" value="AXI" style="rounded=0;whiteSpace=wrap;html=1;horizontal=0;fillColor=#f5f5f5;strokeColor=#666666;rotation=90;fontColor=#333333;container=0;" parent="5d-FkwTWk80sKhFK_zap-28" vertex="1">
          <mxGeometry x="61" y="30" width="30" height="67.53" as="geometry" />
        </mxCell>
        <mxCell id="5d-FkwTWk80sKhFK_zap-31" value="rst_n" style="endArrow=classic;html=1;rounded=0;fontColor=#000000;entryX=0;entryY=0.5;entryDx=0;entryDy=0;" parent="5d-FkwTWk80sKhFK_zap-28" target="5d-FkwTWk80sKhFK_zap-32" edge="1">
          <mxGeometry width="50" height="50" relative="1" as="geometry">
            <mxPoint y="176" as="sourcePoint" />
            <mxPoint x="169.82999999999993" y="528" as="targetPoint" />
          </mxGeometry>
        </mxCell>
        <mxCell id="5d-FkwTWk80sKhFK_zap-32" value="rst_sync" style="whiteSpace=wrap;html=1;container=0;" parent="5d-FkwTWk80sKhFK_zap-28" vertex="1">
          <mxGeometry x="41" y="160" width="70" height="32.47" as="geometry" />
        </mxCell>
        <mxCell id="5d-FkwTWk80sKhFK_zap-33" value="SMS" style="rounded=0;whiteSpace=wrap;html=1;horizontal=0;fillColor=#f5f5f5;strokeColor=#666666;rotation=90;fontColor=#333333;container=0;" parent="5d-FkwTWk80sKhFK_zap-28" vertex="1">
          <mxGeometry x="61" y="195" width="30" height="60" as="geometry" />
        </mxCell>
        <mxCell id="5d-FkwTWk80sKhFK_zap-34" value="ATPG" style="rounded=0;whiteSpace=wrap;html=1;horizontal=0;fillColor=#f5f5f5;strokeColor=#666666;rotation=90;fontColor=#333333;container=0;" parent="5d-FkwTWk80sKhFK_zap-28" vertex="1">
          <mxGeometry x="140" y="195" width="30" height="60" as="geometry" />
        </mxCell>
        <mxCell id="5d-FkwTWk80sKhFK_zap-35" value="clk_div" style="whiteSpace=wrap;html=1;container=0;" parent="5d-FkwTWk80sKhFK_zap-28" vertex="1">
          <mxGeometry x="41" y="110" width="70" height="32.47" as="geometry" />
        </mxCell>
        <mxCell id="5d-FkwTWk80sKhFK_zap-36" value="" style="endArrow=classic;html=1;rounded=0;fontColor=#000000;startArrow=classic;startFill=1;exitX=0;exitY=0.5;exitDx=0;exitDy=0;" parent="5d-FkwTWk80sKhFK_zap-28" edge="1">
          <mxGeometry width="50" height="50" relative="1" as="geometry">
            <mxPoint x="75.5" y="284" as="sourcePoint" />
            <mxPoint x="75.5" y="240" as="targetPoint" />
          </mxGeometry>
        </mxCell>
        <mxCell id="5d-FkwTWk80sKhFK_zap-37" value="APB" style="rounded=0;whiteSpace=wrap;html=1;horizontal=0;fillColor=#f5f5f5;strokeColor=#666666;rotation=90;fontColor=#333333;container=0;" parent="5d-FkwTWk80sKhFK_zap-28" vertex="1">
          <mxGeometry x="140" y="30" width="30" height="67.53" as="geometry" />
        </mxCell>
        <mxCell id="5d-FkwTWk80sKhFK_zap-38" value="clk_ctrl" style="endArrow=classic;html=1;rounded=0;fontColor=#000000;entryX=0;entryY=0.5;entryDx=0;entryDy=0;" parent="5d-FkwTWk80sKhFK_zap-28" edge="1">
          <mxGeometry width="50" height="50" relative="1" as="geometry">
            <mxPoint y="125.73000000000002" as="sourcePoint" />
            <mxPoint x="41" y="125.73000000000002" as="targetPoint" />
          </mxGeometry>
        </mxCell>
        <mxCell id="5d-FkwTWk80sKhFK_zap-39" value="" style="endArrow=classic;html=1;rounded=0;fontColor=#000000;startArrow=classic;startFill=1;exitX=0;exitY=0.5;exitDx=0;exitDy=0;" parent="5d-FkwTWk80sKhFK_zap-28" edge="1">
          <mxGeometry width="50" height="50" relative="1" as="geometry">
            <mxPoint x="154.5" y="284" as="sourcePoint" />
            <mxPoint x="154.5" y="240" as="targetPoint" />
          </mxGeometry>
        </mxCell>
        <mxCell id="5d-FkwTWk80sKhFK_zap-40" value="" style="endArrow=none;html=1;rounded=0;fontColor=#000000;startArrow=classic;startFill=1;exitX=0;exitY=0.5;exitDx=0;exitDy=0;endFill=0;" parent="5d-FkwTWk80sKhFK_zap-28" edge="1">
          <mxGeometry width="50" height="50" relative="1" as="geometry">
            <mxPoint x="75.5" y="44" as="sourcePoint" />
            <mxPoint x="75.5" as="targetPoint" />
          </mxGeometry>
        </mxCell>
        <mxCell id="5d-FkwTWk80sKhFK_zap-41" value="" style="endArrow=none;html=1;rounded=0;fontColor=#000000;startArrow=classic;startFill=1;endFill=0;" parent="5d-FkwTWk80sKhFK_zap-28" edge="1">
          <mxGeometry width="50" height="50" relative="1" as="geometry">
            <mxPoint x="159" y="46" as="sourcePoint" />
            <mxPoint x="159.40999999999985" y="17" as="targetPoint" />
          </mxGeometry>
        </mxCell>
        <mxCell id="5d-FkwTWk80sKhFK_zap-42" value="" style="rounded=1;whiteSpace=wrap;html=1;container=0;" parent="5d-FkwTWk80sKhFK_zap-28" vertex="1">
          <mxGeometry x="140" y="6" width="40" height="10" as="geometry" />
        </mxCell>
        <mxCell id="5d-FkwTWk80sKhFK_zap-43" value="" style="endArrow=classic;html=1;rounded=0;" parent="5d-FkwTWk80sKhFK_zap-28" edge="1">
          <mxGeometry width="50" height="50" relative="1" as="geometry">
            <mxPoint x="148.53658536585317" y="9.333333333333485" as="sourcePoint" />
            <mxPoint x="170" y="12.66666666666697" as="targetPoint" />
            <Array as="points">
              <mxPoint x="153.4146341463411" y="9.333333333333485" />
              <mxPoint x="164.1463414634145" y="12.66666666666697" />
            </Array>
          </mxGeometry>
        </mxCell>
        <mxCell id="5d-FkwTWk80sKhFK_zap-44" value="" style="endArrow=classic;html=1;rounded=0;" parent="5d-FkwTWk80sKhFK_zap-28" edge="1">
          <mxGeometry width="50" height="50" relative="1" as="geometry">
            <mxPoint x="148.53658536585317" y="12.66666666666697" as="sourcePoint" />
            <mxPoint x="170" y="9.333333333333485" as="targetPoint" />
            <Array as="points">
              <mxPoint x="153.4146341463411" y="12.66666666666697" />
              <mxPoint x="164.1463414634145" y="9.333333333333485" />
            </Array>
          </mxGeometry>
        </mxCell>
        <mxCell id="5d-FkwTWk80sKhFK_zap-45" value="" style="group" parent="1" connectable="0" vertex="1">
          <mxGeometry x="6640" y="2780" width="200" height="284" as="geometry" />
        </mxCell>
        <mxCell id="5d-FkwTWk80sKhFK_zap-46" value="&amp;nbsp; &amp;nbsp; &amp;nbsp; &amp;nbsp; &amp;nbsp; &amp;nbsp;L2_4" style="rounded=1;whiteSpace=wrap;html=1;dashed=1;align=center;verticalAlign=middle;arcSize=2;container=0;fillColor=#fff2cc;strokeColor=#d6b656;" parent="5d-FkwTWk80sKhFK_zap-45" vertex="1">
          <mxGeometry x="30" y="61" width="170" height="199" as="geometry" />
        </mxCell>
        <mxCell id="5d-FkwTWk80sKhFK_zap-47" value="AXI" style="rounded=0;whiteSpace=wrap;html=1;horizontal=0;fillColor=#f5f5f5;strokeColor=#666666;rotation=90;fontColor=#333333;container=0;" parent="5d-FkwTWk80sKhFK_zap-45" vertex="1">
          <mxGeometry x="61" y="30" width="30" height="67.53" as="geometry" />
        </mxCell>
        <mxCell id="5d-FkwTWk80sKhFK_zap-48" value="rst_n" style="endArrow=classic;html=1;rounded=0;fontColor=#000000;entryX=0;entryY=0.5;entryDx=0;entryDy=0;" parent="5d-FkwTWk80sKhFK_zap-45" target="5d-FkwTWk80sKhFK_zap-49" edge="1">
          <mxGeometry width="50" height="50" relative="1" as="geometry">
            <mxPoint y="176" as="sourcePoint" />
            <mxPoint x="169.82999999999993" y="528" as="targetPoint" />
          </mxGeometry>
        </mxCell>
        <mxCell id="5d-FkwTWk80sKhFK_zap-49" value="rst_sync" style="whiteSpace=wrap;html=1;container=0;" parent="5d-FkwTWk80sKhFK_zap-45" vertex="1">
          <mxGeometry x="41" y="160" width="70" height="32.47" as="geometry" />
        </mxCell>
        <mxCell id="5d-FkwTWk80sKhFK_zap-50" value="SMS" style="rounded=0;whiteSpace=wrap;html=1;horizontal=0;fillColor=#f5f5f5;strokeColor=#666666;rotation=90;fontColor=#333333;container=0;" parent="5d-FkwTWk80sKhFK_zap-45" vertex="1">
          <mxGeometry x="61" y="195" width="30" height="60" as="geometry" />
        </mxCell>
        <mxCell id="5d-FkwTWk80sKhFK_zap-51" value="ATPG" style="rounded=0;whiteSpace=wrap;html=1;horizontal=0;fillColor=#f5f5f5;strokeColor=#666666;rotation=90;fontColor=#333333;container=0;" parent="5d-FkwTWk80sKhFK_zap-45" vertex="1">
          <mxGeometry x="140" y="195" width="30" height="60" as="geometry" />
        </mxCell>
        <mxCell id="5d-FkwTWk80sKhFK_zap-52" value="clk_div" style="whiteSpace=wrap;html=1;container=0;" parent="5d-FkwTWk80sKhFK_zap-45" vertex="1">
          <mxGeometry x="41" y="110" width="70" height="32.47" as="geometry" />
        </mxCell>
        <mxCell id="5d-FkwTWk80sKhFK_zap-53" value="" style="endArrow=classic;html=1;rounded=0;fontColor=#000000;startArrow=classic;startFill=1;exitX=0;exitY=0.5;exitDx=0;exitDy=0;" parent="5d-FkwTWk80sKhFK_zap-45" edge="1">
          <mxGeometry width="50" height="50" relative="1" as="geometry">
            <mxPoint x="75.5" y="284" as="sourcePoint" />
            <mxPoint x="75.5" y="240" as="targetPoint" />
          </mxGeometry>
        </mxCell>
        <mxCell id="5d-FkwTWk80sKhFK_zap-54" value="APB" style="rounded=0;whiteSpace=wrap;html=1;horizontal=0;fillColor=#f5f5f5;strokeColor=#666666;rotation=90;fontColor=#333333;container=0;" parent="5d-FkwTWk80sKhFK_zap-45" vertex="1">
          <mxGeometry x="140" y="30" width="30" height="67.53" as="geometry" />
        </mxCell>
        <mxCell id="5d-FkwTWk80sKhFK_zap-55" value="clk_ctrl" style="endArrow=classic;html=1;rounded=0;fontColor=#000000;entryX=0;entryY=0.5;entryDx=0;entryDy=0;" parent="5d-FkwTWk80sKhFK_zap-45" edge="1">
          <mxGeometry width="50" height="50" relative="1" as="geometry">
            <mxPoint y="125.73000000000002" as="sourcePoint" />
            <mxPoint x="41" y="125.73000000000002" as="targetPoint" />
          </mxGeometry>
        </mxCell>
        <mxCell id="5d-FkwTWk80sKhFK_zap-56" value="" style="endArrow=classic;html=1;rounded=0;fontColor=#000000;startArrow=classic;startFill=1;exitX=0;exitY=0.5;exitDx=0;exitDy=0;" parent="5d-FkwTWk80sKhFK_zap-45" edge="1">
          <mxGeometry width="50" height="50" relative="1" as="geometry">
            <mxPoint x="154.5" y="284" as="sourcePoint" />
            <mxPoint x="154.5" y="240" as="targetPoint" />
          </mxGeometry>
        </mxCell>
        <mxCell id="5d-FkwTWk80sKhFK_zap-57" value="" style="endArrow=none;html=1;rounded=0;fontColor=#000000;startArrow=classic;startFill=1;exitX=0;exitY=0.5;exitDx=0;exitDy=0;endFill=0;" parent="5d-FkwTWk80sKhFK_zap-45" edge="1">
          <mxGeometry width="50" height="50" relative="1" as="geometry">
            <mxPoint x="75.5" y="44" as="sourcePoint" />
            <mxPoint x="75.5" as="targetPoint" />
          </mxGeometry>
        </mxCell>
        <mxCell id="5d-FkwTWk80sKhFK_zap-58" value="" style="endArrow=none;html=1;rounded=0;fontColor=#000000;startArrow=classic;startFill=1;endFill=0;" parent="5d-FkwTWk80sKhFK_zap-45" edge="1">
          <mxGeometry width="50" height="50" relative="1" as="geometry">
            <mxPoint x="159" y="46" as="sourcePoint" />
            <mxPoint x="159.40999999999985" y="17" as="targetPoint" />
          </mxGeometry>
        </mxCell>
        <mxCell id="5d-FkwTWk80sKhFK_zap-59" value="" style="rounded=1;whiteSpace=wrap;html=1;container=0;" parent="5d-FkwTWk80sKhFK_zap-45" vertex="1">
          <mxGeometry x="140" y="6" width="40" height="10" as="geometry" />
        </mxCell>
        <mxCell id="5d-FkwTWk80sKhFK_zap-60" value="" style="endArrow=classic;html=1;rounded=0;" parent="5d-FkwTWk80sKhFK_zap-45" edge="1">
          <mxGeometry width="50" height="50" relative="1" as="geometry">
            <mxPoint x="148.53658536585317" y="9.333333333333485" as="sourcePoint" />
            <mxPoint x="170" y="12.66666666666697" as="targetPoint" />
            <Array as="points">
              <mxPoint x="153.4146341463411" y="9.333333333333485" />
              <mxPoint x="164.1463414634145" y="12.66666666666697" />
            </Array>
          </mxGeometry>
        </mxCell>
        <mxCell id="5d-FkwTWk80sKhFK_zap-61" value="" style="endArrow=classic;html=1;rounded=0;" parent="5d-FkwTWk80sKhFK_zap-45" edge="1">
          <mxGeometry width="50" height="50" relative="1" as="geometry">
            <mxPoint x="148.53658536585317" y="12.66666666666697" as="sourcePoint" />
            <mxPoint x="170" y="9.333333333333485" as="targetPoint" />
            <Array as="points">
              <mxPoint x="153.4146341463411" y="12.66666666666697" />
              <mxPoint x="164.1463414634145" y="9.333333333333485" />
            </Array>
          </mxGeometry>
        </mxCell>
        <mxCell id="5d-FkwTWk80sKhFK_zap-62" value="" style="group" parent="1" connectable="0" vertex="1">
          <mxGeometry x="6430" y="2771" width="200" height="284" as="geometry" />
        </mxCell>
        <mxCell id="5d-FkwTWk80sKhFK_zap-63" value="&amp;nbsp; &amp;nbsp; &amp;nbsp; &amp;nbsp; &amp;nbsp; &amp;nbsp;L2_3" style="rounded=1;whiteSpace=wrap;html=1;dashed=1;align=center;verticalAlign=middle;arcSize=2;container=0;fillColor=#fff2cc;strokeColor=#d6b656;" parent="5d-FkwTWk80sKhFK_zap-62" vertex="1">
          <mxGeometry x="30" y="61" width="170" height="199" as="geometry" />
        </mxCell>
        <mxCell id="5d-FkwTWk80sKhFK_zap-64" value="AXI" style="rounded=0;whiteSpace=wrap;html=1;horizontal=0;fillColor=#f5f5f5;strokeColor=#666666;rotation=90;fontColor=#333333;container=0;" parent="5d-FkwTWk80sKhFK_zap-62" vertex="1">
          <mxGeometry x="61" y="30" width="30" height="67.53" as="geometry" />
        </mxCell>
        <mxCell id="5d-FkwTWk80sKhFK_zap-65" value="rst_n" style="endArrow=classic;html=1;rounded=0;fontColor=#000000;entryX=0;entryY=0.5;entryDx=0;entryDy=0;" parent="5d-FkwTWk80sKhFK_zap-62" target="5d-FkwTWk80sKhFK_zap-66" edge="1">
          <mxGeometry width="50" height="50" relative="1" as="geometry">
            <mxPoint y="176" as="sourcePoint" />
            <mxPoint x="169.82999999999993" y="528" as="targetPoint" />
          </mxGeometry>
        </mxCell>
        <mxCell id="5d-FkwTWk80sKhFK_zap-66" value="rst_sync" style="whiteSpace=wrap;html=1;container=0;" parent="5d-FkwTWk80sKhFK_zap-62" vertex="1">
          <mxGeometry x="41" y="160" width="70" height="32.47" as="geometry" />
        </mxCell>
        <mxCell id="5d-FkwTWk80sKhFK_zap-67" value="SMS" style="rounded=0;whiteSpace=wrap;html=1;horizontal=0;fillColor=#f5f5f5;strokeColor=#666666;rotation=90;fontColor=#333333;container=0;" parent="5d-FkwTWk80sKhFK_zap-62" vertex="1">
          <mxGeometry x="61" y="195" width="30" height="60" as="geometry" />
        </mxCell>
        <mxCell id="5d-FkwTWk80sKhFK_zap-68" value="ATPG" style="rounded=0;whiteSpace=wrap;html=1;horizontal=0;fillColor=#f5f5f5;strokeColor=#666666;rotation=90;fontColor=#333333;container=0;" parent="5d-FkwTWk80sKhFK_zap-62" vertex="1">
          <mxGeometry x="140" y="195" width="30" height="60" as="geometry" />
        </mxCell>
        <mxCell id="5d-FkwTWk80sKhFK_zap-69" value="clk_div" style="whiteSpace=wrap;html=1;container=0;" parent="5d-FkwTWk80sKhFK_zap-62" vertex="1">
          <mxGeometry x="41" y="110" width="70" height="32.47" as="geometry" />
        </mxCell>
        <mxCell id="5d-FkwTWk80sKhFK_zap-70" value="" style="endArrow=classic;html=1;rounded=0;fontColor=#000000;startArrow=classic;startFill=1;exitX=0;exitY=0.5;exitDx=0;exitDy=0;" parent="5d-FkwTWk80sKhFK_zap-62" edge="1">
          <mxGeometry width="50" height="50" relative="1" as="geometry">
            <mxPoint x="75.5" y="284" as="sourcePoint" />
            <mxPoint x="75.5" y="240" as="targetPoint" />
          </mxGeometry>
        </mxCell>
        <mxCell id="5d-FkwTWk80sKhFK_zap-71" value="APB" style="rounded=0;whiteSpace=wrap;html=1;horizontal=0;fillColor=#f5f5f5;strokeColor=#666666;rotation=90;fontColor=#333333;container=0;" parent="5d-FkwTWk80sKhFK_zap-62" vertex="1">
          <mxGeometry x="140" y="30" width="30" height="67.53" as="geometry" />
        </mxCell>
        <mxCell id="5d-FkwTWk80sKhFK_zap-72" value="clk_ctrl" style="endArrow=classic;html=1;rounded=0;fontColor=#000000;entryX=0;entryY=0.5;entryDx=0;entryDy=0;" parent="5d-FkwTWk80sKhFK_zap-62" edge="1">
          <mxGeometry width="50" height="50" relative="1" as="geometry">
            <mxPoint y="125.73000000000002" as="sourcePoint" />
            <mxPoint x="41" y="125.73000000000002" as="targetPoint" />
          </mxGeometry>
        </mxCell>
        <mxCell id="5d-FkwTWk80sKhFK_zap-73" value="" style="endArrow=classic;html=1;rounded=0;fontColor=#000000;startArrow=classic;startFill=1;exitX=0;exitY=0.5;exitDx=0;exitDy=0;" parent="5d-FkwTWk80sKhFK_zap-62" edge="1">
          <mxGeometry width="50" height="50" relative="1" as="geometry">
            <mxPoint x="154.5" y="284" as="sourcePoint" />
            <mxPoint x="154.5" y="240" as="targetPoint" />
          </mxGeometry>
        </mxCell>
        <mxCell id="5d-FkwTWk80sKhFK_zap-74" value="" style="endArrow=none;html=1;rounded=0;fontColor=#000000;startArrow=classic;startFill=1;exitX=0;exitY=0.5;exitDx=0;exitDy=0;endFill=0;" parent="5d-FkwTWk80sKhFK_zap-62" edge="1">
          <mxGeometry width="50" height="50" relative="1" as="geometry">
            <mxPoint x="75.5" y="44" as="sourcePoint" />
            <mxPoint x="75.5" as="targetPoint" />
          </mxGeometry>
        </mxCell>
        <mxCell id="5d-FkwTWk80sKhFK_zap-75" value="" style="endArrow=none;html=1;rounded=0;fontColor=#000000;startArrow=classic;startFill=1;endFill=0;" parent="5d-FkwTWk80sKhFK_zap-62" edge="1">
          <mxGeometry width="50" height="50" relative="1" as="geometry">
            <mxPoint x="159" y="46" as="sourcePoint" />
            <mxPoint x="159.40999999999985" y="17" as="targetPoint" />
          </mxGeometry>
        </mxCell>
        <mxCell id="5d-FkwTWk80sKhFK_zap-76" value="" style="rounded=1;whiteSpace=wrap;html=1;container=0;" parent="5d-FkwTWk80sKhFK_zap-62" vertex="1">
          <mxGeometry x="140" y="6" width="40" height="10" as="geometry" />
        </mxCell>
        <mxCell id="5d-FkwTWk80sKhFK_zap-77" value="" style="endArrow=classic;html=1;rounded=0;" parent="5d-FkwTWk80sKhFK_zap-62" edge="1">
          <mxGeometry width="50" height="50" relative="1" as="geometry">
            <mxPoint x="148.53658536585317" y="9.333333333333485" as="sourcePoint" />
            <mxPoint x="170" y="12.66666666666697" as="targetPoint" />
            <Array as="points">
              <mxPoint x="153.4146341463411" y="9.333333333333485" />
              <mxPoint x="164.1463414634145" y="12.66666666666697" />
            </Array>
          </mxGeometry>
        </mxCell>
        <mxCell id="5d-FkwTWk80sKhFK_zap-78" value="" style="endArrow=classic;html=1;rounded=0;" parent="5d-FkwTWk80sKhFK_zap-62" edge="1">
          <mxGeometry width="50" height="50" relative="1" as="geometry">
            <mxPoint x="148.53658536585317" y="12.66666666666697" as="sourcePoint" />
            <mxPoint x="170" y="9.333333333333485" as="targetPoint" />
            <Array as="points">
              <mxPoint x="153.4146341463411" y="12.66666666666697" />
              <mxPoint x="164.1463414634145" y="9.333333333333485" />
            </Array>
          </mxGeometry>
        </mxCell>
        <mxCell id="5d-FkwTWk80sKhFK_zap-79" value="" style="group" parent="1" connectable="0" vertex="1">
          <mxGeometry x="6220" y="2770" width="200" height="284" as="geometry" />
        </mxCell>
        <mxCell id="5d-FkwTWk80sKhFK_zap-80" value="&amp;nbsp; &amp;nbsp; &amp;nbsp; &amp;nbsp; &amp;nbsp; &amp;nbsp;L2_2" style="rounded=1;whiteSpace=wrap;html=1;dashed=1;align=center;verticalAlign=middle;arcSize=2;container=0;fillColor=#fff2cc;strokeColor=#d6b656;" parent="5d-FkwTWk80sKhFK_zap-79" vertex="1">
          <mxGeometry x="30" y="61" width="170" height="199" as="geometry" />
        </mxCell>
        <mxCell id="5d-FkwTWk80sKhFK_zap-81" value="AXI" style="rounded=0;whiteSpace=wrap;html=1;horizontal=0;fillColor=#f5f5f5;strokeColor=#666666;rotation=90;fontColor=#333333;container=0;" parent="5d-FkwTWk80sKhFK_zap-79" vertex="1">
          <mxGeometry x="61" y="30" width="30" height="67.53" as="geometry" />
        </mxCell>
        <mxCell id="5d-FkwTWk80sKhFK_zap-82" value="rst_n" style="endArrow=classic;html=1;rounded=0;fontColor=#000000;entryX=0;entryY=0.5;entryDx=0;entryDy=0;" parent="5d-FkwTWk80sKhFK_zap-79" target="5d-FkwTWk80sKhFK_zap-83" edge="1">
          <mxGeometry width="50" height="50" relative="1" as="geometry">
            <mxPoint y="176" as="sourcePoint" />
            <mxPoint x="169.82999999999993" y="528" as="targetPoint" />
          </mxGeometry>
        </mxCell>
        <mxCell id="5d-FkwTWk80sKhFK_zap-83" value="rst_sync" style="whiteSpace=wrap;html=1;container=0;" parent="5d-FkwTWk80sKhFK_zap-79" vertex="1">
          <mxGeometry x="41" y="160" width="70" height="32.47" as="geometry" />
        </mxCell>
        <mxCell id="5d-FkwTWk80sKhFK_zap-84" value="SMS" style="rounded=0;whiteSpace=wrap;html=1;horizontal=0;fillColor=#f5f5f5;strokeColor=#666666;rotation=90;fontColor=#333333;container=0;" parent="5d-FkwTWk80sKhFK_zap-79" vertex="1">
          <mxGeometry x="61" y="195" width="30" height="60" as="geometry" />
        </mxCell>
        <mxCell id="5d-FkwTWk80sKhFK_zap-85" value="ATPG" style="rounded=0;whiteSpace=wrap;html=1;horizontal=0;fillColor=#f5f5f5;strokeColor=#666666;rotation=90;fontColor=#333333;container=0;" parent="5d-FkwTWk80sKhFK_zap-79" vertex="1">
          <mxGeometry x="140" y="195" width="30" height="60" as="geometry" />
        </mxCell>
        <mxCell id="5d-FkwTWk80sKhFK_zap-86" value="clk_div" style="whiteSpace=wrap;html=1;container=0;" parent="5d-FkwTWk80sKhFK_zap-79" vertex="1">
          <mxGeometry x="41" y="110" width="70" height="32.47" as="geometry" />
        </mxCell>
        <mxCell id="5d-FkwTWk80sKhFK_zap-87" value="" style="endArrow=classic;html=1;rounded=0;fontColor=#000000;startArrow=classic;startFill=1;exitX=0;exitY=0.5;exitDx=0;exitDy=0;" parent="5d-FkwTWk80sKhFK_zap-79" edge="1">
          <mxGeometry width="50" height="50" relative="1" as="geometry">
            <mxPoint x="75.5" y="284" as="sourcePoint" />
            <mxPoint x="75.5" y="240" as="targetPoint" />
          </mxGeometry>
        </mxCell>
        <mxCell id="5d-FkwTWk80sKhFK_zap-88" value="APB" style="rounded=0;whiteSpace=wrap;html=1;horizontal=0;fillColor=#f5f5f5;strokeColor=#666666;rotation=90;fontColor=#333333;container=0;" parent="5d-FkwTWk80sKhFK_zap-79" vertex="1">
          <mxGeometry x="140" y="30" width="30" height="67.53" as="geometry" />
        </mxCell>
        <mxCell id="5d-FkwTWk80sKhFK_zap-89" value="clk_ctrl" style="endArrow=classic;html=1;rounded=0;fontColor=#000000;entryX=0;entryY=0.5;entryDx=0;entryDy=0;" parent="5d-FkwTWk80sKhFK_zap-79" edge="1">
          <mxGeometry width="50" height="50" relative="1" as="geometry">
            <mxPoint y="125.73000000000002" as="sourcePoint" />
            <mxPoint x="41" y="125.73000000000002" as="targetPoint" />
          </mxGeometry>
        </mxCell>
        <mxCell id="5d-FkwTWk80sKhFK_zap-90" value="" style="endArrow=classic;html=1;rounded=0;fontColor=#000000;startArrow=classic;startFill=1;exitX=0;exitY=0.5;exitDx=0;exitDy=0;" parent="5d-FkwTWk80sKhFK_zap-79" edge="1">
          <mxGeometry width="50" height="50" relative="1" as="geometry">
            <mxPoint x="154.5" y="284" as="sourcePoint" />
            <mxPoint x="154.5" y="240" as="targetPoint" />
          </mxGeometry>
        </mxCell>
        <mxCell id="5d-FkwTWk80sKhFK_zap-91" value="" style="endArrow=none;html=1;rounded=0;fontColor=#000000;startArrow=classic;startFill=1;exitX=0;exitY=0.5;exitDx=0;exitDy=0;endFill=0;" parent="5d-FkwTWk80sKhFK_zap-79" edge="1">
          <mxGeometry width="50" height="50" relative="1" as="geometry">
            <mxPoint x="75.5" y="44" as="sourcePoint" />
            <mxPoint x="75.5" as="targetPoint" />
          </mxGeometry>
        </mxCell>
        <mxCell id="5d-FkwTWk80sKhFK_zap-92" value="" style="endArrow=none;html=1;rounded=0;fontColor=#000000;startArrow=classic;startFill=1;endFill=0;" parent="5d-FkwTWk80sKhFK_zap-79" edge="1">
          <mxGeometry width="50" height="50" relative="1" as="geometry">
            <mxPoint x="159" y="46" as="sourcePoint" />
            <mxPoint x="159.40999999999985" y="17" as="targetPoint" />
          </mxGeometry>
        </mxCell>
        <mxCell id="5d-FkwTWk80sKhFK_zap-93" value="" style="rounded=1;whiteSpace=wrap;html=1;container=0;" parent="5d-FkwTWk80sKhFK_zap-79" vertex="1">
          <mxGeometry x="140" y="6" width="40" height="10" as="geometry" />
        </mxCell>
        <mxCell id="5d-FkwTWk80sKhFK_zap-94" value="" style="endArrow=classic;html=1;rounded=0;" parent="5d-FkwTWk80sKhFK_zap-79" edge="1">
          <mxGeometry width="50" height="50" relative="1" as="geometry">
            <mxPoint x="148.53658536585317" y="9.333333333333485" as="sourcePoint" />
            <mxPoint x="170" y="12.66666666666697" as="targetPoint" />
            <Array as="points">
              <mxPoint x="153.4146341463411" y="9.333333333333485" />
              <mxPoint x="164.1463414634145" y="12.66666666666697" />
            </Array>
          </mxGeometry>
        </mxCell>
        <mxCell id="5d-FkwTWk80sKhFK_zap-95" value="" style="endArrow=classic;html=1;rounded=0;" parent="5d-FkwTWk80sKhFK_zap-79" edge="1">
          <mxGeometry width="50" height="50" relative="1" as="geometry">
            <mxPoint x="148.53658536585317" y="12.66666666666697" as="sourcePoint" />
            <mxPoint x="170" y="9.333333333333485" as="targetPoint" />
            <Array as="points">
              <mxPoint x="153.4146341463411" y="12.66666666666697" />
              <mxPoint x="164.1463414634145" y="9.333333333333485" />
            </Array>
          </mxGeometry>
        </mxCell>
        <mxCell id="5d-FkwTWk80sKhFK_zap-96" value="" style="group" parent="1" connectable="0" vertex="1">
          <mxGeometry x="6020" y="2771" width="200" height="284" as="geometry" />
        </mxCell>
        <mxCell id="5d-FkwTWk80sKhFK_zap-97" value="&amp;nbsp; &amp;nbsp; &amp;nbsp; &amp;nbsp; &amp;nbsp; &amp;nbsp;L2_1" style="rounded=1;whiteSpace=wrap;html=1;dashed=1;align=center;verticalAlign=middle;arcSize=2;container=0;fillColor=#fff2cc;strokeColor=#d6b656;" parent="5d-FkwTWk80sKhFK_zap-96" vertex="1">
          <mxGeometry x="30" y="61" width="170" height="199" as="geometry" />
        </mxCell>
        <mxCell id="5d-FkwTWk80sKhFK_zap-98" value="AXI" style="rounded=0;whiteSpace=wrap;html=1;horizontal=0;fillColor=#f5f5f5;strokeColor=#666666;rotation=90;fontColor=#333333;container=0;" parent="5d-FkwTWk80sKhFK_zap-96" vertex="1">
          <mxGeometry x="61" y="30" width="30" height="67.53" as="geometry" />
        </mxCell>
        <mxCell id="5d-FkwTWk80sKhFK_zap-99" value="rst_n" style="endArrow=classic;html=1;rounded=0;fontColor=#000000;entryX=0;entryY=0.5;entryDx=0;entryDy=0;" parent="5d-FkwTWk80sKhFK_zap-96" target="5d-FkwTWk80sKhFK_zap-100" edge="1">
          <mxGeometry width="50" height="50" relative="1" as="geometry">
            <mxPoint y="176" as="sourcePoint" />
            <mxPoint x="169.82999999999993" y="528" as="targetPoint" />
          </mxGeometry>
        </mxCell>
        <mxCell id="5d-FkwTWk80sKhFK_zap-100" value="rst_sync" style="whiteSpace=wrap;html=1;container=0;" parent="5d-FkwTWk80sKhFK_zap-96" vertex="1">
          <mxGeometry x="41" y="160" width="70" height="32.47" as="geometry" />
        </mxCell>
        <mxCell id="5d-FkwTWk80sKhFK_zap-101" value="SMS" style="rounded=0;whiteSpace=wrap;html=1;horizontal=0;fillColor=#f5f5f5;strokeColor=#666666;rotation=90;fontColor=#333333;container=0;" parent="5d-FkwTWk80sKhFK_zap-96" vertex="1">
          <mxGeometry x="61" y="195" width="30" height="60" as="geometry" />
        </mxCell>
        <mxCell id="5d-FkwTWk80sKhFK_zap-102" value="ATPG" style="rounded=0;whiteSpace=wrap;html=1;horizontal=0;fillColor=#f5f5f5;strokeColor=#666666;rotation=90;fontColor=#333333;container=0;" parent="5d-FkwTWk80sKhFK_zap-96" vertex="1">
          <mxGeometry x="140" y="195" width="30" height="60" as="geometry" />
        </mxCell>
        <mxCell id="5d-FkwTWk80sKhFK_zap-103" value="clk_div" style="whiteSpace=wrap;html=1;container=0;" parent="5d-FkwTWk80sKhFK_zap-96" vertex="1">
          <mxGeometry x="41" y="110" width="70" height="32.47" as="geometry" />
        </mxCell>
        <mxCell id="5d-FkwTWk80sKhFK_zap-104" value="" style="endArrow=classic;html=1;rounded=0;fontColor=#000000;startArrow=classic;startFill=1;exitX=0;exitY=0.5;exitDx=0;exitDy=0;" parent="5d-FkwTWk80sKhFK_zap-96" edge="1">
          <mxGeometry width="50" height="50" relative="1" as="geometry">
            <mxPoint x="75.5" y="284" as="sourcePoint" />
            <mxPoint x="75.5" y="240" as="targetPoint" />
          </mxGeometry>
        </mxCell>
        <mxCell id="5d-FkwTWk80sKhFK_zap-105" value="APB" style="rounded=0;whiteSpace=wrap;html=1;horizontal=0;fillColor=#f5f5f5;strokeColor=#666666;rotation=90;fontColor=#333333;container=0;" parent="5d-FkwTWk80sKhFK_zap-96" vertex="1">
          <mxGeometry x="140" y="30" width="30" height="67.53" as="geometry" />
        </mxCell>
        <mxCell id="5d-FkwTWk80sKhFK_zap-106" value="clk_ctrl" style="endArrow=classic;html=1;rounded=0;fontColor=#000000;entryX=0;entryY=0.5;entryDx=0;entryDy=0;" parent="5d-FkwTWk80sKhFK_zap-96" edge="1">
          <mxGeometry width="50" height="50" relative="1" as="geometry">
            <mxPoint y="125.73000000000002" as="sourcePoint" />
            <mxPoint x="41" y="125.73000000000002" as="targetPoint" />
          </mxGeometry>
        </mxCell>
        <mxCell id="5d-FkwTWk80sKhFK_zap-107" value="" style="endArrow=classic;html=1;rounded=0;fontColor=#000000;startArrow=classic;startFill=1;exitX=0;exitY=0.5;exitDx=0;exitDy=0;" parent="5d-FkwTWk80sKhFK_zap-96" edge="1">
          <mxGeometry width="50" height="50" relative="1" as="geometry">
            <mxPoint x="154.5" y="284" as="sourcePoint" />
            <mxPoint x="154.5" y="240" as="targetPoint" />
          </mxGeometry>
        </mxCell>
        <mxCell id="5d-FkwTWk80sKhFK_zap-108" value="" style="endArrow=none;html=1;rounded=0;fontColor=#000000;startArrow=classic;startFill=1;exitX=0;exitY=0.5;exitDx=0;exitDy=0;endFill=0;" parent="5d-FkwTWk80sKhFK_zap-96" edge="1">
          <mxGeometry width="50" height="50" relative="1" as="geometry">
            <mxPoint x="75.5" y="44" as="sourcePoint" />
            <mxPoint x="75.5" as="targetPoint" />
          </mxGeometry>
        </mxCell>
        <mxCell id="5d-FkwTWk80sKhFK_zap-109" value="" style="endArrow=none;html=1;rounded=0;fontColor=#000000;startArrow=classic;startFill=1;endFill=0;" parent="5d-FkwTWk80sKhFK_zap-96" edge="1">
          <mxGeometry width="50" height="50" relative="1" as="geometry">
            <mxPoint x="159" y="46" as="sourcePoint" />
            <mxPoint x="159.40999999999985" y="17" as="targetPoint" />
          </mxGeometry>
        </mxCell>
        <mxCell id="5d-FkwTWk80sKhFK_zap-110" value="" style="rounded=1;whiteSpace=wrap;html=1;container=0;" parent="5d-FkwTWk80sKhFK_zap-96" vertex="1">
          <mxGeometry x="140" y="6" width="40" height="10" as="geometry" />
        </mxCell>
        <mxCell id="5d-FkwTWk80sKhFK_zap-111" value="" style="endArrow=classic;html=1;rounded=0;" parent="5d-FkwTWk80sKhFK_zap-96" edge="1">
          <mxGeometry width="50" height="50" relative="1" as="geometry">
            <mxPoint x="148.53658536585317" y="9.333333333333485" as="sourcePoint" />
            <mxPoint x="170" y="12.66666666666697" as="targetPoint" />
            <Array as="points">
              <mxPoint x="153.4146341463411" y="9.333333333333485" />
              <mxPoint x="164.1463414634145" y="12.66666666666697" />
            </Array>
          </mxGeometry>
        </mxCell>
        <mxCell id="5d-FkwTWk80sKhFK_zap-112" value="" style="endArrow=classic;html=1;rounded=0;" parent="5d-FkwTWk80sKhFK_zap-96" edge="1">
          <mxGeometry width="50" height="50" relative="1" as="geometry">
            <mxPoint x="148.53658536585317" y="12.66666666666697" as="sourcePoint" />
            <mxPoint x="170" y="9.333333333333485" as="targetPoint" />
            <Array as="points">
              <mxPoint x="153.4146341463411" y="12.66666666666697" />
              <mxPoint x="164.1463414634145" y="9.333333333333485" />
            </Array>
          </mxGeometry>
        </mxCell>
        <mxCell id="5d-FkwTWk80sKhFK_zap-113" value="" style="group" parent="1" connectable="0" vertex="1">
          <mxGeometry x="5810" y="2770" width="200" height="284" as="geometry" />
        </mxCell>
        <mxCell id="5d-FkwTWk80sKhFK_zap-114" value="&amp;nbsp; &amp;nbsp; &amp;nbsp; &amp;nbsp; &amp;nbsp; &amp;nbsp;L2_0" style="rounded=1;whiteSpace=wrap;html=1;dashed=1;align=center;verticalAlign=middle;arcSize=2;container=0;fillColor=#fff2cc;strokeColor=#d6b656;" parent="5d-FkwTWk80sKhFK_zap-113" vertex="1">
          <mxGeometry x="30" y="61" width="170" height="199" as="geometry" />
        </mxCell>
        <mxCell id="5d-FkwTWk80sKhFK_zap-115" value="AXI" style="rounded=0;whiteSpace=wrap;html=1;horizontal=0;fillColor=#f5f5f5;strokeColor=#666666;rotation=90;fontColor=#333333;container=0;" parent="5d-FkwTWk80sKhFK_zap-113" vertex="1">
          <mxGeometry x="61" y="30" width="30" height="67.53" as="geometry" />
        </mxCell>
        <mxCell id="5d-FkwTWk80sKhFK_zap-116" value="rst_n" style="endArrow=classic;html=1;rounded=0;fontColor=#000000;entryX=0;entryY=0.5;entryDx=0;entryDy=0;" parent="5d-FkwTWk80sKhFK_zap-113" target="5d-FkwTWk80sKhFK_zap-117" edge="1">
          <mxGeometry width="50" height="50" relative="1" as="geometry">
            <mxPoint y="176" as="sourcePoint" />
            <mxPoint x="169.82999999999993" y="528" as="targetPoint" />
          </mxGeometry>
        </mxCell>
        <mxCell id="5d-FkwTWk80sKhFK_zap-117" value="rst_sync" style="whiteSpace=wrap;html=1;container=0;" parent="5d-FkwTWk80sKhFK_zap-113" vertex="1">
          <mxGeometry x="41" y="160" width="70" height="32.47" as="geometry" />
        </mxCell>
        <mxCell id="5d-FkwTWk80sKhFK_zap-118" value="SMS" style="rounded=0;whiteSpace=wrap;html=1;horizontal=0;fillColor=#f5f5f5;strokeColor=#666666;rotation=90;fontColor=#333333;container=0;" parent="5d-FkwTWk80sKhFK_zap-113" vertex="1">
          <mxGeometry x="61" y="195" width="30" height="60" as="geometry" />
        </mxCell>
        <mxCell id="5d-FkwTWk80sKhFK_zap-119" value="ATPG" style="rounded=0;whiteSpace=wrap;html=1;horizontal=0;fillColor=#f5f5f5;strokeColor=#666666;rotation=90;fontColor=#333333;container=0;" parent="5d-FkwTWk80sKhFK_zap-113" vertex="1">
          <mxGeometry x="140" y="195" width="30" height="60" as="geometry" />
        </mxCell>
        <mxCell id="5d-FkwTWk80sKhFK_zap-120" value="clk_div" style="whiteSpace=wrap;html=1;container=0;" parent="5d-FkwTWk80sKhFK_zap-113" vertex="1">
          <mxGeometry x="41" y="110" width="70" height="32.47" as="geometry" />
        </mxCell>
        <mxCell id="5d-FkwTWk80sKhFK_zap-121" value="" style="endArrow=classic;html=1;rounded=0;fontColor=#000000;startArrow=classic;startFill=1;exitX=0;exitY=0.5;exitDx=0;exitDy=0;" parent="5d-FkwTWk80sKhFK_zap-113" edge="1">
          <mxGeometry width="50" height="50" relative="1" as="geometry">
            <mxPoint x="75.5" y="284" as="sourcePoint" />
            <mxPoint x="75.5" y="240" as="targetPoint" />
          </mxGeometry>
        </mxCell>
        <mxCell id="5d-FkwTWk80sKhFK_zap-122" value="APB" style="rounded=0;whiteSpace=wrap;html=1;horizontal=0;fillColor=#f5f5f5;strokeColor=#666666;rotation=90;fontColor=#333333;container=0;" parent="5d-FkwTWk80sKhFK_zap-113" vertex="1">
          <mxGeometry x="140" y="30" width="30" height="67.53" as="geometry" />
        </mxCell>
        <mxCell id="5d-FkwTWk80sKhFK_zap-123" value="clk_ctrl" style="endArrow=classic;html=1;rounded=0;fontColor=#000000;entryX=0;entryY=0.5;entryDx=0;entryDy=0;" parent="5d-FkwTWk80sKhFK_zap-113" edge="1">
          <mxGeometry width="50" height="50" relative="1" as="geometry">
            <mxPoint y="125.73000000000002" as="sourcePoint" />
            <mxPoint x="41" y="125.73000000000002" as="targetPoint" />
          </mxGeometry>
        </mxCell>
        <mxCell id="5d-FkwTWk80sKhFK_zap-124" value="" style="endArrow=classic;html=1;rounded=0;fontColor=#000000;startArrow=classic;startFill=1;exitX=0;exitY=0.5;exitDx=0;exitDy=0;" parent="5d-FkwTWk80sKhFK_zap-113" edge="1">
          <mxGeometry width="50" height="50" relative="1" as="geometry">
            <mxPoint x="154.5" y="284" as="sourcePoint" />
            <mxPoint x="154.5" y="240" as="targetPoint" />
          </mxGeometry>
        </mxCell>
        <mxCell id="5d-FkwTWk80sKhFK_zap-125" value="" style="endArrow=none;html=1;rounded=0;fontColor=#000000;startArrow=classic;startFill=1;exitX=0;exitY=0.5;exitDx=0;exitDy=0;endFill=0;" parent="5d-FkwTWk80sKhFK_zap-113" edge="1">
          <mxGeometry width="50" height="50" relative="1" as="geometry">
            <mxPoint x="75.5" y="44" as="sourcePoint" />
            <mxPoint x="75.5" as="targetPoint" />
          </mxGeometry>
        </mxCell>
        <mxCell id="5d-FkwTWk80sKhFK_zap-126" value="" style="endArrow=none;html=1;rounded=0;fontColor=#000000;startArrow=classic;startFill=1;endFill=0;" parent="5d-FkwTWk80sKhFK_zap-113" edge="1">
          <mxGeometry width="50" height="50" relative="1" as="geometry">
            <mxPoint x="159" y="46" as="sourcePoint" />
            <mxPoint x="159.40999999999985" y="17" as="targetPoint" />
          </mxGeometry>
        </mxCell>
        <mxCell id="5d-FkwTWk80sKhFK_zap-127" value="" style="rounded=1;whiteSpace=wrap;html=1;container=0;" parent="5d-FkwTWk80sKhFK_zap-113" vertex="1">
          <mxGeometry x="140" y="6" width="40" height="10" as="geometry" />
        </mxCell>
        <mxCell id="5d-FkwTWk80sKhFK_zap-128" value="" style="endArrow=classic;html=1;rounded=0;" parent="5d-FkwTWk80sKhFK_zap-113" edge="1">
          <mxGeometry width="50" height="50" relative="1" as="geometry">
            <mxPoint x="148.53658536585317" y="9.333333333333485" as="sourcePoint" />
            <mxPoint x="170" y="12.66666666666697" as="targetPoint" />
            <Array as="points">
              <mxPoint x="153.4146341463411" y="9.333333333333485" />
              <mxPoint x="164.1463414634145" y="12.66666666666697" />
            </Array>
          </mxGeometry>
        </mxCell>
        <mxCell id="5d-FkwTWk80sKhFK_zap-129" value="" style="endArrow=classic;html=1;rounded=0;" parent="5d-FkwTWk80sKhFK_zap-113" edge="1">
          <mxGeometry width="50" height="50" relative="1" as="geometry">
            <mxPoint x="148.53658536585317" y="12.66666666666697" as="sourcePoint" />
            <mxPoint x="170" y="9.333333333333485" as="targetPoint" />
            <Array as="points">
              <mxPoint x="153.4146341463411" y="12.66666666666697" />
              <mxPoint x="164.1463414634145" y="9.333333333333485" />
            </Array>
          </mxGeometry>
        </mxCell>
      </root>
    </mxGraphModel>
  </diagram>
</mxfile>
